<?xml version="1.0" encoding="UTF-8"?>
<svg version="1.1" xmlns="http://www.w3.org/2000/svg" width="2109" height="3750">
<path d="M0 0 C695.97 0 1391.94 0 2109 0 C2109 1237.5 2109 2475 2109 3750 C1413.03 3750 717.06 3750 0 3750 C0 2512.5 0 1275 0 0 Z " fill="#FDFDFD" transform="translate(0,0)"/>
<path d="M0 0 C1.01708038 -0.00145523 2.03416077 -0.00291046 3.08206177 -0.00440979 C6.36334009 -0.00664149 9.64451341 -0.00041318 12.92578125 0.0078125 C14.04044769 0.00969574 15.15511414 0.01157898 16.30355835 0.01351929 C29.88718273 0.04052402 43.47119072 0.0939446 57.05078125 0.4453125 C58.24469482 0.46770996 59.4386084 0.49010742 60.66870117 0.51318359 C61.74998291 0.54879395 62.83126465 0.5844043 63.9453125 0.62109375 C64.85772705 0.64727783 65.7701416 0.67346191 66.71020508 0.70043945 C69.99937258 1.2629808 71.66094148 1.97087431 74.23828125 4.1328125 C74.74360926 7.1127105 74.9016198 9.52866981 74.85352039 12.51366711 C74.86217423 13.81806296 74.86217423 13.81806296 74.87100288 15.14881024 C74.88433378 18.08935763 74.86172977 21.02856096 74.83955383 23.96903992 C74.84173238 26.08765494 74.84610691 28.20626867 74.85249966 30.32487518 C74.86372502 36.16727544 74.84361803 42.00922084 74.81860936 47.8515631 C74.79708826 54.14400295 74.80431886 60.43641556 74.80812073 66.72888184 C74.81074701 77.63782881 74.79518625 88.54660515 74.76693153 99.45551109 C74.73736731 110.89928582 74.71810605 122.3430011 74.71266747 133.78681374 C74.71232377 134.49780342 74.71198007 135.20879309 74.71162596 135.94132792 C74.70993434 139.55194403 74.7084274 143.16256019 74.70699158 146.77317641 C74.69648373 172.36095042 74.66278085 197.94864673 74.61547852 223.53637695 C74.56957201 248.39770087 74.53414629 273.25900353 74.51293945 298.12036133 C74.51228182 298.88641743 74.51162419 299.65247354 74.51094663 300.44174346 C74.50435415 308.13464861 74.49797506 315.82755392 74.49175234 323.52045937 C74.47907056 339.19241777 74.4649643 354.86437479 74.44999695 370.53633118 C74.44896727 371.6172371 74.44896727 371.6172371 74.4479168 372.7199795 C74.40189739 420.85762501 74.3215296 468.99521862 74.23828125 517.1328125 C95.68828125 517.1328125 117.13828125 517.1328125 139.23828125 517.1328125 C139.23828125 542.8728125 139.23828125 568.6128125 139.23828125 595.1328125 C53.76828125 595.1328125 -31.70171875 595.1328125 -119.76171875 595.1328125 C-119.76171875 569.3928125 -119.76171875 543.6528125 -119.76171875 517.1328125 C-93.03171875 517.1328125 -66.30171875 517.1328125 -38.76171875 517.1328125 C-38.76171875 399.6528125 -38.76171875 282.1728125 -38.76171875 161.1328125 C-65.49171875 161.1328125 -92.22171875 161.1328125 -119.76171875 161.1328125 C-122.53258723 155.59107553 -122.04214032 147.85104595 -122.53320312 141.75439453 C-122.73201947 139.47352927 -122.99608817 137.21304335 -123.27734375 134.94140625 C-124.68347979 116.31010375 -113.70578571 96.34193537 -102.35546875 82.1171875 C-101.66453125 81.37984375 -100.97359375 80.6425 -100.26171875 79.8828125 C-99.11896484 78.65884766 -99.11896484 78.65884766 -97.953125 77.41015625 C-96.86837891 76.28287109 -96.86837891 76.28287109 -95.76171875 75.1328125 C-95.15199219 74.49472656 -94.54226563 73.85664062 -93.9140625 73.19921875 C-89.73953391 68.92959839 -85.29678798 65.01273529 -80.76171875 61.1328125 C-79.64836967 60.17846454 -78.53509438 59.2240305 -77.421875 58.26953125 C-75.62794305 56.73156657 -73.83355025 55.19417175 -72.03686523 53.65942383 C-70.87786543 52.6686153 -69.72043691 51.6759663 -68.56445312 50.68164062 C-67.3510571 49.63914545 -66.13351461 48.60145926 -64.91210938 47.56835938 C-59.05818553 42.55493825 -53.67015204 37.11884167 -48.26171875 31.6328125 C-42.81488875 26.10783573 -37.39873192 20.64277803 -31.45996094 15.64282227 C-27.55333147 12.1692019 -24.41888097 8.35649388 -21.94921875 3.7578125 C-19.76171875 1.1328125 -19.76171875 1.1328125 -17.95768738 0.66238403 C-11.96357765 0.14809388 -6.01533049 -0.01243849 0 0 Z " fill="#010101" transform="translate(1072.76171875,1560.8671875)"/>
<path d="M0 0 C1.36978613 0.00650421 2.73957901 0.01171502 4.109375 0.015625 C11.20358353 0.05677093 18.26293006 0.30748186 25.34375 0.734375 C34.12854308 1.25115476 42.91340926 1.41317501 51.7109375 1.53125 C52.77110769 1.54560467 52.77110769 1.54560467 53.85269547 1.56024933 C59.73330633 1.63848583 65.61401739 1.70778551 71.49475098 1.77606201 C75.90902828 1.82754711 80.32323732 1.88246854 84.73741531 1.94187927 C86.76715431 1.96786926 88.79695416 1.98896435 90.82675171 2.0098877 C92.08581329 2.02660522 93.34487488 2.04332275 94.64208984 2.06054688 C95.72839691 2.07307495 96.81470398 2.08560303 97.93392944 2.09851074 C103.58980563 2.31591474 109.23161877 2.81589375 114.875 3.25 C114.875 174.52 114.875 345.79 114.875 522.25 C137.645 522.25 160.415 522.25 183.875 522.25 C183.875 571.75 183.875 621.25 183.875 672.25 C73.325 672.25 -37.225 672.25 -151.125 672.25 C-151.125 622.75 -151.125 573.25 -151.125 522.25 C-123.075 522.25 -95.025 522.25 -66.125 522.25 C-66.125 427.21 -66.125 332.17 -66.125 234.25 C-94.175 234.25 -122.225 234.25 -151.125 234.25 C-151.62 221.400625 -152.115 208.55125 -152.625 195.3125 C-152.78162109 191.29070557 -152.93824219 187.26891113 -153.09960938 183.12524414 C-153.29003906 178.12390137 -153.29003906 178.12390137 -153.37902832 175.76512146 C-153.44034089 174.15582285 -153.50289757 172.54657129 -153.56652832 170.93736267 C-153.90890218 162.25545954 -154.18466185 153.58168726 -154.20507812 144.89233398 C-154.20784508 144.20077493 -154.21061203 143.50921587 -154.21346283 142.79670048 C-154.19157299 132.89516468 -152.38200956 125.12297277 -146.125 117.25 C-142.36269138 113.66283334 -138.263585 110.6524401 -133.91992188 107.80395508 C-127.20195201 103.30976981 -121.71056412 98.13264011 -116.125 92.3125 C-114.46283244 90.59069742 -112.79639556 88.87300242 -111.125 87.16015625 C-110.403125 86.40871338 -109.68125 85.65727051 -108.9375 84.88305664 C-107.125 83.25 -107.125 83.25 -105.125 83.25 C-104.85582764 82.65034424 -104.58665527 82.05068848 -104.30932617 81.43286133 C-103.11919318 79.2392973 -102.01762121 77.98144869 -100.17578125 76.32421875 C-99.58176514 75.7820874 -98.98774902 75.23995605 -98.37573242 74.68139648 C-97.73611572 74.10591064 -97.09649902 73.5304248 -96.4375 72.9375 C-90.81138005 67.77132964 -85.25294578 62.54937858 -79.8125 57.1875 C-79.1728833 56.5689917 -78.5332666 55.9504834 -77.87426758 55.31323242 C-74.59342246 52.0581962 -72.76502524 49.61130605 -71.125 45.25 C-68.91796875 42.96875 -68.91796875 42.96875 -66.3125 40.75 C-60.57137799 35.8166304 -55.36877861 30.50060565 -50.25 24.9375 C-49.45674316 24.07874268 -49.45674316 24.07874268 -48.64746094 23.20263672 C-45.82915847 20.1415559 -43.06892089 17.04687459 -40.375 13.875 C-39.30034446 12.65894242 -38.21718014 11.45034291 -37.125 10.25 C-36.26261719 9.29287109 -36.26261719 9.29287109 -35.3828125 8.31640625 C-26.04039574 -1.00662791 -12.36690111 -0.18501208 0 0 Z M-15.47265625 42.47265625 C-16.03855469 43.40980469 -16.60445312 44.34695313 -17.1875 45.3125 C-21.08747685 51.28216753 -25.37779389 56.04719413 -30.79370117 60.67626953 C-37.60901435 66.51649378 -43.81801238 72.9173625 -50.08398438 79.3359375 C-55.37073412 84.68882025 -60.81849644 89.59976239 -66.69458008 94.29833984 C-69.50985195 96.55904134 -72.16414076 98.92204561 -74.8125 101.375 C-77.94228538 104.25582518 -81.08639591 107.1025668 -84.3125 109.875 C-95.71068935 119.87749269 -102.84435665 130.64974696 -109.26660156 144.41748047 C-109.83826407 145.63787261 -110.42097185 146.85315229 -111.01464844 148.06298828 C-116.00420066 158.31500194 -117.01873383 166.94648384 -116.125 178.25 C-116.05684082 179.13107422 -115.98868164 180.01214844 -115.91845703 180.91992188 C-115.65385039 190.86315091 -115.65385039 190.86315091 -113.125 200.25 C-86.395 200.25 -59.665 200.25 -32.125 200.25 C-32.125 317.73 -32.125 435.21 -32.125 556.25 C-58.855 556.25 -85.585 556.25 -113.125 556.25 C-113.125 581.99 -113.125 607.73 -113.125 634.25 C-27.655 634.25 57.815 634.25 145.875 634.25 C145.875 608.51 145.875 582.77 145.875 556.25 C124.425 556.25 102.975 556.25 80.875 556.25 C80.89165459 546.61963814 80.89165459 546.61963814 80.90864563 536.79472351 C80.98027192 494.41433486 81.04634395 452.03394931 81.0867157 409.65351868 C81.08740598 408.93073749 81.08809627 408.2079563 81.08880747 407.46327265 C81.10377067 391.75674647 81.11762177 376.0502195 81.13032665 360.34369133 C81.13656354 352.64164365 81.14304628 344.93959619 81.1496582 337.23754883 C81.1506389 336.08785579 81.1506389 336.08785579 81.1516394 334.91493663 C81.1729608 310.05444738 81.21052823 285.19401481 81.2564861 260.33355993 C81.30361306 234.7944189 81.33441884 209.25530925 81.34457495 183.71612547 C81.34601581 180.11208398 81.34764399 176.50804259 81.34938622 172.90400124 C81.34972333 172.19464731 81.35006045 171.48529338 81.35040778 170.75444388 C81.35632524 159.31804339 81.37953931 147.88173973 81.40916017 136.44537879 C81.43854449 124.95868933 81.4494471 113.47213395 81.44250689 101.98540124 C81.43929083 95.75722333 81.44436731 89.52933053 81.47102737 83.30120277 C81.49522458 77.60714204 81.496676 71.91356014 81.47949447 66.21947811 C81.47736864 64.15213408 81.48382525 62.08476107 81.49941591 60.01747473 C81.51928868 57.22133724 81.50878952 54.42696112 81.49023914 51.63085461 C81.50337421 50.81570644 81.51650928 50.00055827 81.53004238 49.16070864 C81.54928933 46.66255359 81.54928933 46.66255359 80.875 43.25 C77.54287232 40.4549265 74.86767184 39.86126873 70.58203125 39.73828125 C69.50074951 39.7026709 68.41946777 39.66706055 67.30541992 39.63037109 C66.11150635 39.60797363 64.91759277 39.58557617 63.6875 39.5625 C62.42333252 39.52979004 61.15916504 39.49708008 59.85668945 39.46337891 C46.42896675 39.14770785 32.99319548 39.14769129 19.5625 39.125 C18.45774323 39.12223053 17.35298645 39.11946106 16.2147522 39.11660767 C13.02204041 39.11076949 9.82943093 39.11261939 6.63671875 39.1171875 C5.68457489 39.11521866 4.73243103 39.11324982 3.75143433 39.11122131 C-6.61398702 38.54976977 -6.61398702 38.54976977 -15.47265625 42.47265625 Z " fill="#F1F1F1" transform="translate(1066.125,1521.75)"/>
<path d="M0 0 C1.36978613 0.00650421 2.73957901 0.01171502 4.109375 0.015625 C11.20358353 0.05677093 18.26293006 0.30748186 25.34375 0.734375 C34.12854308 1.25115476 42.91340926 1.41317501 51.7109375 1.53125 C52.77110769 1.54560467 52.77110769 1.54560467 53.85269547 1.56024933 C59.73330633 1.63848583 65.61401739 1.70778551 71.49475098 1.77606201 C75.90902828 1.82754711 80.32323732 1.88246854 84.73741531 1.94187927 C86.76715431 1.96786926 88.79695416 1.98896435 90.82675171 2.0098877 C92.08581329 2.02660522 93.34487488 2.04332275 94.64208984 2.06054688 C95.72839691 2.07307495 96.81470398 2.08560303 97.93392944 2.09851074 C103.58980563 2.31591474 109.23161877 2.81589375 114.875 3.25 C114.875 174.52 114.875 345.79 114.875 522.25 C137.645 522.25 160.415 522.25 183.875 522.25 C183.875 571.75 183.875 621.25 183.875 672.25 C73.325 672.25 -37.225 672.25 -151.125 672.25 C-151.125 622.75 -151.125 573.25 -151.125 522.25 C-123.075 522.25 -95.025 522.25 -66.125 522.25 C-66.125 427.21 -66.125 332.17 -66.125 234.25 C-94.175 234.25 -122.225 234.25 -151.125 234.25 C-151.62 221.400625 -152.115 208.55125 -152.625 195.3125 C-152.78162109 191.29070557 -152.93824219 187.26891113 -153.09960938 183.12524414 C-153.29003906 178.12390137 -153.29003906 178.12390137 -153.37902832 175.76512146 C-153.44034089 174.15582285 -153.50289757 172.54657129 -153.56652832 170.93736267 C-153.90890218 162.25545954 -154.18466185 153.58168726 -154.20507812 144.89233398 C-154.20784508 144.20077493 -154.21061203 143.50921587 -154.21346283 142.79670048 C-154.19157299 132.89516468 -152.38200956 125.12297277 -146.125 117.25 C-142.36269138 113.66283334 -138.263585 110.6524401 -133.91992188 107.80395508 C-127.20195201 103.30976981 -121.71056412 98.13264011 -116.125 92.3125 C-114.46283244 90.59069742 -112.79639556 88.87300242 -111.125 87.16015625 C-110.403125 86.40871338 -109.68125 85.65727051 -108.9375 84.88305664 C-107.125 83.25 -107.125 83.25 -105.125 83.25 C-104.85582764 82.65034424 -104.58665527 82.05068848 -104.30932617 81.43286133 C-103.11919318 79.2392973 -102.01762121 77.98144869 -100.17578125 76.32421875 C-99.58176514 75.7820874 -98.98774902 75.23995605 -98.37573242 74.68139648 C-97.73611572 74.10591064 -97.09649902 73.5304248 -96.4375 72.9375 C-90.81138005 67.77132964 -85.25294578 62.54937858 -79.8125 57.1875 C-79.1728833 56.5689917 -78.5332666 55.9504834 -77.87426758 55.31323242 C-74.59342246 52.0581962 -72.76502524 49.61130605 -71.125 45.25 C-68.91796875 42.96875 -68.91796875 42.96875 -66.3125 40.75 C-60.57137799 35.8166304 -55.36877861 30.50060565 -50.25 24.9375 C-49.45674316 24.07874268 -49.45674316 24.07874268 -48.64746094 23.20263672 C-45.82915847 20.1415559 -43.06892089 17.04687459 -40.375 13.875 C-39.30034446 12.65894242 -38.21718014 11.45034291 -37.125 10.25 C-36.26261719 9.29287109 -36.26261719 9.29287109 -35.3828125 8.31640625 C-26.04039574 -1.00662791 -12.36690111 -0.18501208 0 0 Z M-18.74169922 26.27978516 C-21.18650483 27.27503792 -23.64320425 28.09319934 -26.16015625 28.88671875 C-36.3985275 32.15949543 -36.3985275 32.15949543 -43.375 40.0625 C-43.79265625 40.99707031 -44.2103125 41.93164062 -44.640625 42.89453125 C-46.63063214 46.05235837 -48.58321958 46.40369059 -52.125 47.25 C-52.125 48.57 -52.125 49.89 -52.125 51.25 C-54.35546875 53.3984375 -54.35546875 53.3984375 -57.3125 55.625 C-61.51093205 58.90908281 -65.0471106 61.89850119 -68.125 66.25 C-68.125 66.91 -68.125 67.57 -68.125 68.25 C-69.61 67.755 -69.61 67.755 -71.125 67.25 C-71.125 65.6 -71.125 63.95 -71.125 62.25 C-73.78000029 64.51959702 -74.45641456 65.94013713 -74.875 69.375 C-76.13313818 75.90025906 -80.20869754 80.73594615 -85.1640625 85.0078125 C-87.125 86.25 -87.125 86.25 -90.125 86.25 C-92.22879101 88.41001046 -94.14808933 90.55718732 -96.0625 92.875 C-96.85043945 93.80119141 -96.85043945 93.80119141 -97.65429688 94.74609375 C-100.0303831 97.57122756 -102.19663509 100.35938692 -104.22265625 103.453125 C-106.13634571 106.26668076 -108.04116437 108.17873972 -110.625 110.375 C-115.34265886 114.4767034 -119.72331842 118.81119605 -124.01367188 123.35205078 C-126.65556892 126.0750587 -128.40894463 127.54142593 -132.125 128.25 C-132.39258238 135.90580633 -132.65893798 143.56165473 -132.92456055 151.2175293 C-133.01446765 153.80510352 -133.10462467 156.39266908 -133.19506836 158.98022461 C-133.89697181 179.06877978 -134.51615437 199.15809421 -135.125 219.25 C-107.405 219.25 -79.685 219.25 -51.125 219.25 C-51.125 324.19 -51.125 429.13 -51.125 537.25 C-77.855 537.25 -104.585 537.25 -132.125 537.25 C-132.125 575.53 -132.125 613.81 -132.125 653.25 C-34.115 653.25 63.895 653.25 164.875 653.25 C164.875 615.3 164.875 577.35 164.875 538.25 C143.095 538.25 121.315 538.25 98.875 538.25 C98.875 367.97 98.875 197.69 98.875 22.25 C94.99953723 21.47490745 91.90350328 21.10423589 88.01611328 21.04467773 C86.855242 21.02473251 85.69437073 21.00478729 84.49832153 20.98423767 C83.24332855 20.96752518 81.98833557 20.95081268 80.6953125 20.93359375 C78.71868118 20.9024221 78.71868118 20.9024221 76.70211792 20.87062073 C73.89617271 20.82665913 71.09020525 20.78579976 68.28417969 20.74731445 C64.7897381 20.69929998 61.29542237 20.64539009 57.80110073 20.58939266 C50.9146055 20.4794289 44.02814353 20.38830844 37.14111996 20.31861782 C33.61960324 20.28254533 30.09842091 20.2396233 26.57717896 20.18240356 C23.05771852 20.1252768 19.53838147 20.08378506 16.01859665 20.05285835 C14.08123454 20.03199849 12.14405984 19.99552967 10.2069397 19.95848083 C-0.35046571 19.89142009 -9.09064478 22.16690531 -18.74169922 26.27978516 Z " fill="#1E1E1E" transform="translate(1066.125,1521.75)"/>
<path d="M0 0 C3.30626051 0.01429734 6.56750706 0.13344031 9.86328125 0.390625 C8.69034058 7.78015124 6.26693619 13.98697006 0.86328125 19.390625 C-0.8028899 19.43126332 -2.4705997 19.433346 -4.13671875 19.390625 C-3.64171875 21.370625 -3.64171875 21.370625 -3.13671875 23.390625 C-4.11253906 24.19886719 -5.08835937 25.00710938 -6.09375 25.83984375 C-7.37922456 26.91889174 -8.66436321 27.99834 -9.94921875 29.078125 C-10.59181641 29.60857422 -11.23441406 30.13902344 -11.89648438 30.68554688 C-14.77041298 33.11275083 -16.91312923 35.00975182 -18.8359375 38.28515625 C-19.26519531 38.97996094 -19.69445312 39.67476562 -20.13671875 40.390625 C-21.45671875 40.390625 -22.77671875 40.390625 -24.13671875 40.390625 C-24.13671875 38.740625 -24.13671875 37.090625 -24.13671875 35.390625 C-24.27207031 36.08027344 -24.40742187 36.76992187 -24.546875 37.48046875 C-26.64726802 46.64925027 -31.02859288 54.21043347 -39.13671875 59.390625 C-40.12671875 59.390625 -41.11671875 59.390625 -42.13671875 59.390625 C-44.07726213 61.38745895 -45.8253348 63.36171171 -47.57421875 65.515625 C-48.05181641 66.08539062 -48.52941406 66.65515625 -49.02148438 67.2421875 C-51.24071696 69.92109652 -53.24930323 72.5654388 -55.13671875 75.49609375 C-57.35462306 78.70599042 -59.77307891 81.00265438 -62.69921875 83.578125 C-65.97278396 86.48103095 -69.18987933 89.39440673 -72.2265625 92.546875 C-72.71632568 93.05452393 -73.20608887 93.56217285 -73.71069336 94.08520508 C-75.06851779 95.50672475 -76.41542279 96.93865088 -77.76171875 98.37109375 C-80.13671875 100.390625 -80.13671875 100.390625 -84.13671875 100.390625 C-84.12624512 101.2350415 -84.11577148 102.07945801 -84.10498047 102.94946289 C-83.89937665 122.47792155 -84.22226121 141.94092541 -85.07421875 161.453125 C-85.11778503 162.46649933 -85.16135132 163.47987366 -85.20623779 164.5239563 C-85.33375565 167.44977605 -85.46628164 170.37531088 -85.6015625 173.30078125 C-85.64015884 174.15792725 -85.67875519 175.01507324 -85.71852112 175.89819336 C-86.01859571 182.09527261 -86.57365911 188.19696899 -87.13671875 194.390625 C-60.40671875 194.390625 -33.67671875 194.390625 -6.13671875 194.390625 C-6.13671875 297.350625 -6.13671875 400.310625 -6.13671875 506.390625 C-31.54671875 506.390625 -56.95671875 506.390625 -83.13671875 506.390625 C-81.13671875 501.390625 -81.13671875 501.390625 -78.13671875 497.390625 C-57.34671875 497.390625 -36.55671875 497.390625 -15.13671875 497.390625 C-15.13671875 400.370625 -15.13671875 303.350625 -15.13671875 203.390625 C-43.18671875 203.390625 -71.23671875 203.390625 -100.13671875 203.390625 C-100.29715399 179.04457773 -100.29715399 179.04457773 -100.33203125 168.63867188 C-100.35590991 161.54797337 -100.38410915 154.45748218 -100.43847656 147.36694336 C-100.48205005 141.6481188 -100.50588039 135.92951667 -100.51622772 130.21053886 C-100.52359841 128.03252094 -100.53799157 125.85451469 -100.55963898 123.67659187 C-100.58882536 120.61754508 -100.59266833 117.55940855 -100.59082031 114.50024414 C-100.61239197 113.16019569 -100.61239197 113.16019569 -100.63439941 111.79307556 C-100.57421084 102.5395776 -96.87824076 95.68703838 -91.13671875 88.640625 C-90.71132813 88.10308594 -90.2859375 87.56554688 -89.84765625 87.01171875 C-88.6199735 85.46393467 -87.37859273 83.92704601 -86.13671875 82.390625 C-85.44191406 81.49601562 -84.74710938 80.60140625 -84.03125 79.6796875 C-82.38121629 77.68603853 -80.82056502 76.14023783 -78.82421875 74.515625 C-73.64700321 70.12432453 -68.96344509 65.23873966 -64.2409668 60.36962891 C-63.61101807 59.72815918 -62.98106934 59.08668945 -62.33203125 58.42578125 C-61.76500488 57.8419165 -61.19797852 57.25805176 -60.61376953 56.65649414 C-59.13671875 55.390625 -59.13671875 55.390625 -57.13671875 55.390625 C-56.86754639 54.79096924 -56.59837402 54.19131348 -56.32104492 53.57348633 C-55.13091193 51.3799223 -54.02933996 50.12207369 -52.1875 48.46484375 C-51.59348389 47.9227124 -50.99946777 47.38058105 -50.38745117 46.82202148 C-49.74783447 46.24653564 -49.10821777 45.6710498 -48.44921875 45.078125 C-42.8230988 39.91195464 -37.26466453 34.69000358 -31.82421875 29.328125 C-31.18460205 28.7096167 -30.54498535 28.0911084 -29.88598633 27.45385742 C-26.60827307 24.20192843 -24.7625937 21.75519599 -23.13671875 17.390625 C-20.96484375 15.00390625 -20.96484375 15.00390625 -18.38671875 12.703125 C-17.54625 11.93613281 -16.70578125 11.16914062 -15.83984375 10.37890625 C-13.13671875 8.390625 -13.13671875 8.390625 -9.90625 7.31640625 C-6.80210395 6.64132808 -6.80210395 6.64132808 -5.57421875 3.265625 C-3.13671875 0.390625 -3.13671875 0.390625 0 0 Z " fill="#020202" transform="translate(1018.13671875,1549.609375)"/>
<path d="M0 0 C1.01708038 -0.00145523 2.03416077 -0.00291046 3.08206177 -0.00440979 C6.36334009 -0.00664149 9.64451341 -0.00041318 12.92578125 0.0078125 C14.04044769 0.00969574 15.15511414 0.01157898 16.30355835 0.01351929 C29.88718273 0.04052402 43.47119072 0.0939446 57.05078125 0.4453125 C58.24469482 0.46770996 59.4386084 0.49010742 60.66870117 0.51318359 C61.74998291 0.54879395 62.83126465 0.5844043 63.9453125 0.62109375 C64.85772705 0.64727783 65.7701416 0.67346191 66.71020508 0.70043945 C69.99937258 1.2629808 71.66094148 1.97087431 74.23828125 4.1328125 C74.74360926 7.1127105 74.9016198 9.52866981 74.85352039 12.51366711 C74.86217423 13.81806296 74.86217423 13.81806296 74.87100288 15.14881024 C74.88433378 18.08935763 74.86172977 21.02856096 74.83955383 23.96903992 C74.84173238 26.08765494 74.84610691 28.20626867 74.85249966 30.32487518 C74.86372502 36.16727544 74.84361803 42.00922084 74.81860936 47.8515631 C74.79708826 54.14400295 74.80431886 60.43641556 74.80812073 66.72888184 C74.81074701 77.63782881 74.79518625 88.54660515 74.76693153 99.45551109 C74.73736731 110.89928582 74.71810605 122.3430011 74.71266747 133.78681374 C74.71232377 134.49780342 74.71198007 135.20879309 74.71162596 135.94132792 C74.70993434 139.55194403 74.7084274 143.16256019 74.70699158 146.77317641 C74.69648373 172.36095042 74.66278085 197.94864673 74.61547852 223.53637695 C74.56957201 248.39770087 74.53414629 273.25900353 74.51293945 298.12036133 C74.51228182 298.88641743 74.51162419 299.65247354 74.51094663 300.44174346 C74.50435415 308.13464861 74.49797506 315.82755392 74.49175234 323.52045937 C74.47907056 339.19241777 74.4649643 354.86437479 74.44999695 370.53633118 C74.44896727 371.6172371 74.44896727 371.6172371 74.4479168 372.7199795 C74.40189739 420.85762501 74.3215296 468.99521862 74.23828125 517.1328125 C95.68828125 517.1328125 117.13828125 517.1328125 139.23828125 517.1328125 C139.23828125 542.8728125 139.23828125 568.6128125 139.23828125 595.1328125 C53.76828125 595.1328125 -31.70171875 595.1328125 -119.76171875 595.1328125 C-119.76171875 569.3928125 -119.76171875 543.6528125 -119.76171875 517.1328125 C-93.03171875 517.1328125 -66.30171875 517.1328125 -38.76171875 517.1328125 C-38.76171875 399.6528125 -38.76171875 282.1728125 -38.76171875 161.1328125 C-65.49171875 161.1328125 -92.22171875 161.1328125 -119.76171875 161.1328125 C-120.09171875 159.1528125 -120.42171875 157.1728125 -120.76171875 155.1328125 C-120.43171875 156.1228125 -120.10171875 157.1128125 -119.76171875 158.1328125 C-92.04171875 158.1328125 -64.32171875 158.1328125 -35.76171875 158.1328125 C-35.76171875 277.5928125 -35.76171875 397.0528125 -35.76171875 520.1328125 C-62.49171875 520.1328125 -89.22171875 520.1328125 -116.76171875 520.1328125 C-116.76171875 543.8928125 -116.76171875 567.6528125 -116.76171875 592.1328125 C-33.27171875 592.1328125 50.21828125 592.1328125 136.23828125 592.1328125 C136.23828125 569.6928125 136.23828125 547.2528125 136.23828125 524.1328125 C115.40088408 524.25148428 115.40088408 524.25148428 94.5637207 524.40307617 C91.95133837 524.41183805 89.33895194 524.41948269 86.7265625 524.42578125 C86.05126999 524.43362137 85.37597748 524.44146149 84.68022156 524.44953918 C82.68055616 524.4715847 80.68069505 524.47283044 78.6809082 524.47338867 C77.55505814 524.48005051 76.42920807 524.48671234 75.26924133 524.49357605 C71.64541551 524.06224597 70.02457124 523.51007781 67.23828125 521.1328125 C66.73310433 518.13815693 66.5749884 515.7048753 66.62304211 512.70510578 C66.61438827 511.39311225 66.61438827 511.39311225 66.60555962 510.0546138 C66.59222836 507.09683897 66.61483307 504.14040028 66.63700867 501.18269348 C66.63483012 499.05170407 66.63045562 496.92071595 66.62406284 494.78973502 C66.61283734 488.91313103 66.63294468 483.03697926 66.65795314 477.16043293 C66.67947403 470.83118292 66.67224365 464.50196 66.66844177 458.17268372 C66.66581548 447.19989438 66.68137638 436.22727468 66.70963097 425.25452614 C66.73919509 413.74376537 66.75845643 402.2330637 66.76389503 390.72226524 C66.76423873 390.00711652 66.76458243 389.2919678 66.76493654 388.55514791 C66.76662816 384.92341167 66.7681351 381.29167537 66.76957092 377.65993901 C66.7800788 351.92242233 66.81378176 326.18498291 66.86108398 300.44750977 C66.90699041 275.44067801 66.94241617 250.43386739 66.96362305 225.42700195 C66.96428068 224.65646368 66.96493831 223.88592541 66.96561587 223.09203749 C66.97220835 215.35412215 66.97858744 207.61620664 66.98481016 199.87829099 C66.99749194 184.11463488 67.0115982 168.35098015 67.02656555 152.58732605 C67.02759523 151.50009543 67.02759523 151.50009543 67.0286457 150.39090055 C67.07466518 101.97150502 67.1539969 53.55215494 67.23828125 5.1328125 C66.2457132 5.17039673 65.25314514 5.20798096 64.23049927 5.2467041 C54.84478518 5.60185378 45.45899811 5.95501587 36.07313728 6.30626678 C31.24859009 6.48688082 26.42407064 6.66817811 21.59960938 6.85107422 C16.93773226 7.02778094 12.27578921 7.20264411 7.61379623 7.37626648 C5.84132326 7.4425943 4.06887438 7.50956966 2.29645157 7.57722473 C-6.39365368 7.90853624 -15.06343 8.22592531 -23.76171875 8.1328125 C-22.58301166 5.3141651 -21.76219353 3.36994222 -19.76171875 1.1328125 C-17.92106628 0.5708313 -17.92106628 0.5708313 -15.77416992 0.41845703 C-14.97079193 0.35926086 -14.16741394 0.3000647 -13.33969116 0.23907471 C-8.89067055 0.05568921 -4.45268267 -0.00920725 0 0 Z " fill="#5B5B5B" transform="translate(1072.76171875,1560.8671875)"/>
<path d="M0 0 C0.66 0.33 1.32 0.66 2 1 C1.49210938 1.54527344 0.98421875 2.09054687 0.4609375 2.65234375 C-8.80114616 12.79900844 -14.28548242 20.80394084 -14.31884766 34.76904297 C-14.32889328 35.73552261 -14.3389389 36.70200226 -14.34928894 37.69776917 C-14.3800783 40.87923612 -14.39714441 44.06061908 -14.4140625 47.2421875 C-14.43277754 49.45322388 -14.45235121 51.66425315 -14.4727478 53.87527466 C-14.52403933 59.68501588 -14.56368112 65.49478026 -14.60089111 71.30462646 C-14.64799658 78.28064807 -14.70958173 85.25655508 -14.76873779 92.23248291 C-14.85691371 102.82160894 -14.92670439 113.41071341 -15 124 C13.05 124 41.1 124 70 124 C70 221.02 70 318.04 70 418 C42.28 418 14.56 418 -14 418 C-14 465.52 -14 513.04 -14 562 C94.24 562 202.48 562 314 562 C314 513.49 314 464.98 314 415 C314.99 415 315.98 415 317 415 C317 464.5 317 514 317 565 C206.45 565 95.9 565 -18 565 C-18 515.5 -18 466 -18 415 C10.05 415 38.1 415 67 415 C67 319.96 67 224.92 67 127 C38.95 127 10.9 127 -18 127 C-18.495 114.150625 -18.99 101.30125 -19.5 88.0625 C-19.73493164 82.02980835 -19.73493164 82.02980835 -19.97460938 75.87524414 C-20.16503906 70.87390137 -20.16503906 70.87390137 -20.25402832 68.51512146 C-20.31534089 66.90582285 -20.37789757 65.29657129 -20.44152832 63.68736267 C-20.78390218 55.00545954 -21.05966185 46.33168726 -21.08007812 37.64233398 C-21.08284508 36.95077493 -21.08561203 36.25921587 -21.08846283 35.54670048 C-21.06661892 25.66594317 -19.27261431 17.84396169 -13 10 C-8.9504423 6.23384836 -4.59440268 3.06293512 0 0 Z " fill="#444444" transform="translate(933,1629)"/>
<path d="M0 0 C1.36978613 0.00650421 2.73957901 0.01171502 4.109375 0.015625 C11.20358353 0.05677093 18.26293006 0.30748186 25.34375 0.734375 C34.12854308 1.25115476 42.91340926 1.41317501 51.7109375 1.53125 C52.77110769 1.54560467 52.77110769 1.54560467 53.85269547 1.56024933 C59.73330633 1.63848583 65.61401739 1.70778551 71.49475098 1.77606201 C75.90902828 1.82754711 80.32323732 1.88246854 84.73741531 1.94187927 C86.76715431 1.96786926 88.79695416 1.98896435 90.82675171 2.0098877 C98.87917605 2.11680593 106.85420885 2.52636411 114.875 3.25 C114.875 4.24 114.875 5.23 114.875 6.25 C68.345 6.25 21.815 6.25 -26.125 6.25 C-25.63 10.705 -25.63 10.705 -25.125 15.25 C-24.25264206 15.24555878 -23.38028412 15.24111755 -22.48149109 15.23654175 C-14.17280057 15.19610589 -5.86414412 15.16583594 2.44462299 15.14637566 C6.71402063 15.13603396 10.98333551 15.1220557 15.25268555 15.09912109 C48.82352985 14.92345255 48.82352985 14.92345255 62.89038086 16.7734375 C69.88581714 17.68278927 76.95563946 17.67904012 84 17.8125 C86.14470841 17.85662881 88.28928066 17.90306513 90.43380737 17.95530701 C92.33091017 18.00114222 94.22820009 18.03903413 96.12548828 18.07641602 C98.875 18.25 98.875 18.25 99.875 19.25 C99.9739741 21.99583108 100.00675667 24.71652855 99.99804783 27.4628458 C99.99920167 28.33857722 100.00035552 29.21430863 100.00154433 30.11657736 C100.00421879 33.08958262 99.99968206 36.06253513 99.99525452 39.03553772 C99.99569005 41.17304749 99.99656462 43.31055722 99.99784368 45.44806665 C100.00009217 51.35182928 99.99606255 57.25557396 99.99106562 63.1593343 C99.98676635 69.51452265 99.98820717 75.8697099 99.9889679 82.22489929 C99.98949347 93.24567473 99.98637797 104.26644417 99.98073006 115.28721809 C99.9748196 126.84986461 99.97096544 138.41250877 99.96987724 149.97515678 C99.9698085 150.69321568 99.96973976 151.41127457 99.96966894 152.15109282 C99.96933062 155.79752713 99.96902923 159.44396143 99.96874207 163.09039574 C99.96663984 188.9399041 99.95989743 214.78940939 99.95043945 240.63891602 C99.94125989 265.75642887 99.93417389 290.87394088 99.92993164 315.99145508 C99.92980011 316.76524451 99.92966859 317.53903395 99.92953308 318.33627155 C99.92821459 326.10675309 99.92693877 333.87723463 99.92569422 341.64771617 C99.92315778 357.47807039 99.92033653 373.30842455 99.91734314 389.13877869 C99.9171372 390.23063764 99.9171372 390.23063764 99.91692711 391.34455436 C99.9077214 439.97970427 99.89164782 488.61485213 99.875 537.25 C121.325 537.25 142.775 537.25 164.875 537.25 C164.875 537.58 164.875 537.91 164.875 538.25 C143.095 538.25 121.315 538.25 98.875 538.25 C98.875 367.97 98.875 197.69 98.875 22.25 C38.71237902 17.37794317 38.71237902 17.37794317 -21.125 28.25 C-23.33016576 29.13933193 -25.54061167 30.01434705 -27.75195312 30.88818359 C-29.60702996 31.63030499 -31.44873415 32.4056183 -33.2890625 33.18359375 C-36.125 34.25 -36.125 34.25 -39.125 34.25 C-38.795 32.27 -38.465 30.29 -38.125 28.25 C-46.21088139 27.750685 -46.21088139 27.750685 -53.1015625 31.09765625 C-54.31707846 33.11285375 -55.30652017 35.04562793 -56.125 37.25 C-56.785 36.26 -57.445 35.27 -58.125 34.25 C-52.48393013 27.4651699 -46.77485238 20.75584519 -40.8125 14.25 C-40.33393555 13.72317627 -39.85537109 13.19635254 -39.36230469 12.65356445 C-37.97772795 11.155839 -36.55784305 9.70143835 -35.125 8.25 C-34.28582031 7.363125 -33.44664063 6.47625 -32.58203125 5.5625 C-23.88647608 -1.36714134 -10.49775963 -0.15704923 0 0 Z " fill="#6B6B6B" transform="translate(1066.125,1521.75)"/>
<path d="M0 0 C3.30626051 0.01429734 6.56750706 0.13344031 9.86328125 0.390625 C8.69034058 7.78015124 6.26693619 13.98697006 0.86328125 19.390625 C-0.8028899 19.43126332 -2.4705997 19.433346 -4.13671875 19.390625 C-3.64171875 21.370625 -3.64171875 21.370625 -3.13671875 23.390625 C-4.11253906 24.19886719 -5.08835937 25.00710938 -6.09375 25.83984375 C-7.37922456 26.91889174 -8.66436321 27.99834 -9.94921875 29.078125 C-10.59181641 29.60857422 -11.23441406 30.13902344 -11.89648438 30.68554688 C-14.77041298 33.11275083 -16.91312923 35.00975182 -18.8359375 38.28515625 C-19.26519531 38.97996094 -19.69445312 39.67476562 -20.13671875 40.390625 C-21.45671875 40.390625 -22.77671875 40.390625 -24.13671875 40.390625 C-24.13671875 38.740625 -24.13671875 37.090625 -24.13671875 35.390625 C-24.27207031 36.08027344 -24.40742187 36.76992187 -24.546875 37.48046875 C-26.64726802 46.64925027 -31.02859288 54.21043347 -39.13671875 59.390625 C-40.12671875 59.390625 -41.11671875 59.390625 -42.13671875 59.390625 C-44.07726213 61.38745895 -45.8253348 63.36171171 -47.57421875 65.515625 C-48.05181641 66.08539062 -48.52941406 66.65515625 -49.02148438 67.2421875 C-51.24071696 69.92109652 -53.24930323 72.5654388 -55.13671875 75.49609375 C-57.35462306 78.70599042 -59.77307891 81.00265438 -62.69921875 83.578125 C-65.97278396 86.48103095 -69.18987933 89.39440673 -72.2265625 92.546875 C-72.71632568 93.05452393 -73.20608887 93.56217285 -73.71069336 94.08520508 C-75.06851779 95.50672475 -76.41542279 96.93865088 -77.76171875 98.37109375 C-80.13671875 100.390625 -80.13671875 100.390625 -84.13671875 100.390625 C-84.63171875 101.380625 -84.63171875 101.380625 -85.13671875 102.390625 C-85.13671875 101.730625 -85.13671875 101.070625 -85.13671875 100.390625 C-90.10765699 100.80216237 -94.58180261 101.18663332 -99.13671875 103.390625 C-97.64618045 97.09724108 -93.94647857 92.4727997 -90.13671875 87.390625 C-89.49089844 86.52566406 -88.84507812 85.66070313 -88.1796875 84.76953125 C-84.65029766 80.19594323 -81.07337528 76.26655685 -76.625 72.59375 C-72.27939523 68.74615017 -68.27940471 64.53367329 -64.23999023 60.3684082 C-63.61036377 59.72734131 -62.9807373 59.08627441 -62.33203125 58.42578125 C-61.76500488 57.8419165 -61.19797852 57.25805176 -60.61376953 56.65649414 C-59.13671875 55.390625 -59.13671875 55.390625 -57.13671875 55.390625 C-56.86754639 54.79096924 -56.59837402 54.19131348 -56.32104492 53.57348633 C-55.13091193 51.3799223 -54.02933996 50.12207369 -52.1875 48.46484375 C-51.59348389 47.9227124 -50.99946777 47.38058105 -50.38745117 46.82202148 C-49.74783447 46.24653564 -49.10821777 45.6710498 -48.44921875 45.078125 C-42.8230988 39.91195464 -37.26466453 34.69000358 -31.82421875 29.328125 C-31.18460205 28.7096167 -30.54498535 28.0911084 -29.88598633 27.45385742 C-26.60827307 24.20192843 -24.7625937 21.75519599 -23.13671875 17.390625 C-20.96484375 15.00390625 -20.96484375 15.00390625 -18.38671875 12.703125 C-17.54625 11.93613281 -16.70578125 11.16914062 -15.83984375 10.37890625 C-13.13671875 8.390625 -13.13671875 8.390625 -9.90625 7.31640625 C-6.80210395 6.64132808 -6.80210395 6.64132808 -5.57421875 3.265625 C-3.13671875 0.390625 -3.13671875 0.390625 0 0 Z " fill="#1F1F1F" transform="translate(1018.13671875,1549.609375)"/>
<path d="M0 0 C3.30626051 0.01429734 6.56750706 0.13344031 9.86328125 0.390625 C8.69034058 7.78015124 6.26693619 13.98697006 0.86328125 19.390625 C-0.8028899 19.43126332 -2.4705997 19.433346 -4.13671875 19.390625 C-3.80671875 20.710625 -3.47671875 22.030625 -3.13671875 23.390625 C-4.11253906 24.19886719 -5.08835937 25.00710938 -6.09375 25.83984375 C-7.37922456 26.91889174 -8.66436321 27.99834 -9.94921875 29.078125 C-10.91311523 29.87379883 -10.91311523 29.87379883 -11.89648438 30.68554688 C-14.77041298 33.11275083 -16.91312923 35.00975182 -18.8359375 38.28515625 C-19.26519531 38.97996094 -19.69445312 39.67476562 -20.13671875 40.390625 C-21.45671875 40.390625 -22.77671875 40.390625 -24.13671875 40.390625 C-24.10578125 39.215 -24.10578125 39.215 -24.07421875 38.015625 C-23.94987812 35.40947539 -23.94987812 35.40947539 -25.13671875 33.390625 C-23.81671875 31.740625 -22.49671875 30.090625 -21.13671875 28.390625 C-23.11671875 27.400625 -25.09671875 26.410625 -27.13671875 25.390625 C-24.17171701 17.97812066 -19.6354088 13.03805616 -13.13671875 8.390625 C-11.54150391 7.8646875 -11.54150391 7.8646875 -9.9140625 7.328125 C-6.80348045 6.64136181 -6.80348045 6.64136181 -5.57421875 3.265625 C-3.13671875 0.390625 -3.13671875 0.390625 0 0 Z " fill="#303030" transform="translate(1018.13671875,1549.609375)"/>
<path d="M0 0 C0.66 0.33 1.32 0.66 2 1 C1.49210938 1.54527344 0.98421875 2.09054687 0.4609375 2.65234375 C-8.83898943 12.84046595 -14.33751032 20.82783724 -14.22705078 34.86083984 C-14.22748886 36.32518967 -14.22748886 36.32518967 -14.22793579 37.81912231 C-14.22654687 41.03315237 -14.21100612 44.24694814 -14.1953125 47.4609375 C-14.19158082 49.69438551 -14.18873458 51.92783516 -14.18673706 54.1612854 C-14.17911284 60.03029933 -14.15947467 65.89921377 -14.1373291 71.76818848 C-14.11684463 77.76080988 -14.10772978 83.75344741 -14.09765625 89.74609375 C-14.07622771 101.49743947 -14.04210631 113.24871145 -14 125 C-14.99 125 -15.98 125 -17 125 C-17.495 125.99 -17.495 125.99 -18 127 C-18.39501436 116.86304444 -18.78642914 106.72595657 -19.17345428 96.58869267 C-19.35334221 91.87977958 -19.5343942 87.17091771 -19.71826172 82.4621582 C-19.89620163 77.90403713 -20.0708812 73.34580099 -20.24345398 68.78747368 C-20.30929856 67.06263343 -20.37624877 65.33783496 -20.44441223 63.61308479 C-20.78582617 54.95596659 -21.05972013 46.30688118 -21.08007812 37.64233398 C-21.08284508 36.95077493 -21.08561203 36.25921587 -21.08846283 35.54670048 C-21.06661892 25.66594317 -19.27261431 17.84396169 -13 10 C-8.9504423 6.23384836 -4.59440268 3.06293512 0 0 Z " fill="#484848" transform="translate(933,1629)"/>
<path d="M0 0 C3.30063492 0.00717529 6.55366072 0.12607143 9.84375 0.3828125 C8.68166965 7.70391872 6.284495 12.47578377 1.84375 18.3828125 C0.07219346 18.26851853 -1.69851229 18.14098213 -3.46875 18.0078125 C-4.45488281 17.93820312 -5.44101562 17.86859375 -6.45703125 17.796875 C-9.15625 17.3828125 -9.15625 17.3828125 -12.15625 15.3828125 C-11.49625 13.7328125 -10.83625 12.0828125 -10.15625 10.3828125 C-9.49625 10.3828125 -8.83625 10.3828125 -8.15625 10.3828125 C-8.07375 9.8465625 -7.99125 9.3103125 -7.90625 8.7578125 C-5.34535864 0.6483232 -5.34535864 0.6483232 0 0 Z " fill="#181818" transform="translate(1018.15625,1549.6171875)"/>
<path d="M0 0 C8.9501697 -0.19247677 17.73262921 -0.17180984 26.625 0.9375 C40.66084111 2.67016872 54.87491467 2.67817255 69 3 C69.495 4.98 69.495 4.98 70 7 C49.21 6.34 28.42 5.68 7 5 C7.33 4.34 7.66 3.68 8 3 C5.03 2.67 2.06 2.34 -1 2 C-0.67 1.34 -0.34 0.68 0 0 Z " fill="#575757" transform="translate(1096,1537)"/>
<path d="M0 0 C10.56 0 21.12 0 32 0 C32 0.33 32 0.66 32 1 C39.92 1.33 47.84 1.66 56 2 C56 2.33 56 2.66 56 3 C48.08 3.495 48.08 3.495 40 4 C51.22 4.33 62.44 4.66 74 5 C74 5.33 74 5.66 74 6 C51.30914046 6.10796471 28.6690198 6.13844683 6 5 C6 4.67 6 4.34 6 4 C10.455 3.505 10.455 3.505 15 3 C7.575 2.01 7.575 2.01 0 1 C0 0.67 0 0.34 0 0 Z " fill="#868686" transform="translate(1064,1537)"/>
<path d="M0 0 C0.99 0.33 1.98 0.66 3 1 C3.66 0.67 4.32 0.34 5 0 C4.5253725 2.3134359 4.04517721 4.62573019 3.5625 6.9375 C3.29566406 8.22527344 3.02882813 9.51304688 2.75390625 10.83984375 C2 14 2 14 1 15 C-0.99958364 15.04080783 -3.00045254 15.04254356 -5 15 C-5.33 16.65 -5.66 18.3 -6 20 C-8.3431213 19.74438677 -10.67843403 19.40729228 -13 19 C-13.33 18.34 -13.66 17.68 -14 17 C-4.58997722 5.47835991 -4.58997722 5.47835991 0 0 Z " fill="#DFDFDF" transform="translate(977,1607)"/>
<path d="M0 0 C0 3.41321235 -0.66867466 4.39472885 -2.5 7.1875 C-2.9640625 7.90292969 -3.428125 8.61835937 -3.90625 9.35546875 C-4.2671875 9.89816406 -4.628125 10.44085937 -5 11 C-5.66 10.01 -6.32 9.02 -7 8 C-4.69 5.36 -2.38 2.72 0 0 Z " fill="#5C5C5C" transform="translate(1015,1548)"/>
<path d="M0 0 C0.33 0.99 0.66 1.98 1 3 C2.65 3 4.3 3 6 3 C6 3.66 6 4.32 6 5 C4.35 5.33 2.7 5.66 1 6 C0.67 4.02 0.34 2.04 0 0 Z " fill="#6A6A6A" transform="translate(952,1716)"/>
</svg>
